<?xml version="1.0" encoding="utf-8"?>
<!-- Generator: Adobe Illustrator 23.1.1, SVG Export Plug-In . SVG Version: 6.00 Build 0)  -->
<svg version="1.1" id="Layer_1" xmlns="http://www.w3.org/2000/svg" xmlns:xlink="http://www.w3.org/1999/xlink" x="0px" y="0px"
	 viewBox="0 0 512 512" style="enable-background:new 0 0 512 512;" xml:space="preserve">
<style type="text/css">
	.st0{fill:#FFFFFF;}
</style>
<g>
	<g>
		<g>
			<g>
				<path class="st0" d="M412.93,331.8l-44.52-24c-10.84-5.84-19.27-1.62-28.6,11.23c-20.5,28.2-30.44,33.78-55.6,19.73
					c-23.47-13.1-40.28-28.67-61.36-49.75c-21.08-21.08-36.64-37.89-49.75-61.36c-14.04-25.15-8.47-35.1,19.73-55.59
					c12.85-9.34,17.07-17.76,11.23-28.6l-24-44.52c-9.81-18.94-23.71-21.1-44.28-14.14c-28.37,9.6-55.82,50.57-54.43,70.01
					c4.07,56.81,32.51,125.07,91.71,184.26c59.19,59.2,127.45,87.64,184.27,91.71c19.44,1.39,60.14-26.33,69.74-54.7
					C434.03,355.52,431.86,341.61,412.93,331.8z"/>
				<path class="st0" d="M279.74,160.35c-9.39,0.08-16.93,7.75-16.85,17.13c0.08,9.34,7.67,16.85,16.99,16.85
					c0.16-0.01,0.32,0,0.46,0c10.11,0,19.58,3.9,26.7,11.02c7.19,7.19,11.1,16.79,11.02,27.01c-0.08,9.38,7.47,17.05,16.85,17.13
					h0.14c9.31,0,16.91-7.52,16.99-16.85c0.16-19.41-7.29-37.63-20.97-51.32C317.38,167.64,298.88,160.47,279.74,160.35z
					 M381.17,131.21c-27.06-27.07-63.52-41.95-101.35-41.75c-9.39,0.03-16.96,7.67-16.93,17.05c0.03,9.36,7.63,16.93,16.99,16.93
					c0.11-0.02,0.3-0.01,0.46,0c29.02,0,56.29,11.28,76.8,31.8c20.6,20.6,31.9,48.02,31.8,77.2c-0.03,9.39,7.55,17.02,16.93,17.05
					h0.06c9.36,0,16.96-7.57,16.99-16.93C423.05,194.25,408.23,158.26,381.17,131.21z"/>
			</g>
		</g>
	</g>
</g>
</svg>
