<?xml version="1.0" encoding="utf-8"?>
<!-- Generator: Adobe Illustrator 23.1.1, SVG Export Plug-In . SVG Version: 6.00 Build 0)  -->
<svg version="1.1" id="Layer_1" xmlns="http://www.w3.org/2000/svg" xmlns:xlink="http://www.w3.org/1999/xlink" x="0px" y="0px"
	 viewBox="0 0 512 512" style="enable-background:new 0 0 512 512;" xml:space="preserve">
<style type="text/css">
	.st0{fill:#FFFFFF;}
</style>
<path class="st0" d="M432.93,176.46L278.35,76.46c-13.6-8.8-31.11-8.8-44.71,0l-154.59,100c-11.72,7.58-18.8,20.6-18.8,34.56v185.41
	c0,22.73,18.43,41.16,41.16,41.16h309.16c22.73,0,41.16-18.43,41.16-41.16V211.01C451.73,197.05,444.65,184.04,432.93,176.46z
	 M206.14,339.84l-88.63,71.18c-2.77,2.22-6.09,3.31-9.38,3.31c-4.39,0-8.74-1.92-11.7-5.61c-5.19-6.46-4.16-15.9,2.3-21.09
	l88.63-71.18c6.46-5.19,15.9-4.16,21.09,2.3C213.63,325.21,212.6,334.66,206.14,339.84z M244.25,307.65l-122.57-79.29
	c-18.07-11.69-9.79-39.74,11.73-39.74h245.15c21.53,0,29.81,28.05,11.73,39.74l-122.58,79.29
	C260.57,312.27,251.39,312.27,244.25,307.65z M414.98,408.72c-2.96,3.69-7.31,5.61-11.71,5.61c-3.3,0-6.61-1.08-9.38-3.31
	l-88.63-71.18c-6.46-5.19-7.49-14.63-2.3-21.09c5.19-6.46,14.63-7.49,21.09-2.3l88.63,71.18
	C419.14,392.82,420.17,402.26,414.98,408.72z"/>
</svg>
