<?xml version="1.0" encoding="utf-8"?>
<!-- Generator: Adobe Illustrator 23.1.1, SVG Export Plug-In . SVG Version: 6.00 Build 0)  -->
<svg version="1.1" id="Layer_1" xmlns="http://www.w3.org/2000/svg" xmlns:xlink="http://www.w3.org/1999/xlink" x="0px" y="0px"
	 viewBox="0 0 512 512" style="enable-background:new 0 0 512 512;" xml:space="preserve">
<style type="text/css">
	.st0{fill:#FFFFFF;}
</style>
<g>
	<path class="st0" d="M358.06,193.61H153.94c-3.83,0-6.93-3.1-6.93-6.93s3.1-6.93,6.93-6.93h204.13c3.83,0,6.93,3.1,6.93,6.93
		S361.89,193.61,358.06,193.61z"/>
</g>
<g>
	<path class="st0" d="M358.06,262.93H153.94c-3.83,0-6.93-3.1-6.93-6.93c0-3.83,3.1-6.93,6.93-6.93h204.13
		c3.83,0,6.93,3.1,6.93,6.93C365,259.83,361.89,262.93,358.06,262.93z"/>
</g>
<g>
	<path class="st0" d="M358.06,332.25H153.94c-3.83,0-6.93-3.1-6.93-6.93c0-3.83,3.1-6.93,6.93-6.93h204.13
		c3.83,0,6.93,3.1,6.93,6.93C365,329.15,361.89,332.25,358.06,332.25z"/>
</g>
<g>
	<path class="st0" d="M256,474.76c-120.62,0-218.76-98.14-218.76-218.76c0-120.63,98.14-218.76,218.76-218.76
		c120.63,0,218.76,98.14,218.76,218.76C474.76,376.62,376.62,474.76,256,474.76z M256,51.1C143.02,51.1,51.1,143.02,51.1,256
		S143.02,460.9,256,460.9S460.9,368.98,460.9,256S368.98,51.1,256,51.1z"/>
</g>
</svg>
