<?xml version="1.0" encoding="utf-8"?>
<!-- Generator: Adobe Illustrator 23.1.1, SVG Export Plug-In . SVG Version: 6.00 Build 0)  -->
<svg version="1.1" id="Layer_1" xmlns="http://www.w3.org/2000/svg" xmlns:xlink="http://www.w3.org/1999/xlink" x="0px" y="0px"
	 viewBox="0 0 512 512" style="enable-background:new 0 0 512 512;" xml:space="preserve">
<style type="text/css">
	.st0{fill:#FFFFFF;}
</style>
<g>
	<path class="st0" d="M225.55,400.93c-96.71,0-175.39-78.68-175.39-175.39S128.84,50.16,225.55,50.16s175.39,78.68,175.39,175.39
		S322.26,400.93,225.55,400.93z M225.55,91.33c-74.01,0-134.22,60.21-134.22,134.22c0,74.01,60.21,134.22,134.22,134.22
		c74.01,0,134.22-60.21,134.22-134.22C359.76,151.54,299.55,91.33,225.55,91.33z"/>
</g>
<g>
	<path class="st0" d="M441.26,461.84c-5.27,0-10.54-2.01-14.56-6.03L320.45,349.56c-8.04-8.04-8.04-21.07,0-29.11
		s21.07-8.04,29.11,0L455.81,426.7c8.04,8.04,8.04,21.07,0,29.11C451.79,459.83,446.52,461.84,441.26,461.84z"/>
</g>
</svg>
