<?xml version="1.0" encoding="utf-8"?>
<!-- Generator: Adobe Illustrator 23.1.1, SVG Export Plug-In . SVG Version: 6.00 Build 0)  -->
<svg version="1.1" id="Layer_1" xmlns="http://www.w3.org/2000/svg" xmlns:xlink="http://www.w3.org/1999/xlink" x="0px" y="0px"
	 viewBox="0 0 512 512" style="enable-background:new 0 0 512 512;" xml:space="preserve">
<style type="text/css">
	.st0{fill:none;stroke:#FFFFFF;stroke-width:12;stroke-linecap:round;stroke-linejoin:round;stroke-miterlimit:10;}
</style>
<circle class="st0" cx="166.38" cy="261.49" r="29.89"/>
<path class="st0" d="M108.2,299.88l58.18,89.42l58.18-89.42c30.04-46.17-3.09-107.26-58.18-107.26l0,0
	C111.3,192.62,78.17,253.7,108.2,299.88z"/>
<circle class="st0" cx="373.56" cy="125" r="17.68"/>
<path class="st0" d="M339.14,147.72l34.42,52.9l34.42-52.9c17.77-27.32-1.83-63.46-34.42-63.46l0,0
	C340.97,84.26,321.37,120.4,339.14,147.72z"/>
<path class="st0" d="M184.95,360.76c19.9,4.35,34.05,15.49,34.05,28.54c0,16.84-23.56,30.5-52.62,30.5s-52.62-13.65-52.62-30.5
	c0-13.06,14.15-24.19,34.05-28.54"/>
<path class="st0" d="M383.07,186.01c12.99,2.35,22.43,9.37,22.43,17.68c0,10.22-14.3,18.51-31.94,18.51s-31.94-8.29-31.94-18.51
	c0-8.3,9.43-15.33,22.43-17.68"/>
<path class="st0" d="M373.56,222.19v21.41c0,16.07-13.03,29.1-29.1,29.1h-28.33c-16.07,0-29.1,13.03-29.1,29.1v0.19
	c0,16.07,13.03,29.1,29.1,29.1h2.88c16.07,0,29.1,13.03,29.1,29.1v0c0,16.07-13.03,29.1-29.1,29.1H219"/>
</svg>
