<?xml version="1.0" encoding="utf-8"?>
<!-- Generator: Adobe Illustrator 23.1.1, SVG Export Plug-In . SVG Version: 6.00 Build 0)  -->
<svg version="1.1" id="Layer_1" xmlns="http://www.w3.org/2000/svg" xmlns:xlink="http://www.w3.org/1999/xlink" x="0px" y="0px"
	 viewBox="0 0 512 512" style="enable-background:new 0 0 512 512;" xml:space="preserve">
<style type="text/css">
	.st0{fill:none;stroke:#FFFFFF;stroke-width:12;stroke-linecap:round;stroke-linejoin:round;stroke-miterlimit:10;}
</style>
<path class="st0" d="M401.97,168.01H109.96c-9.94,0-18-8.06-18-18v-45.96c0-9.94,8.06-18,18-18h292.02c9.94,0,18,8.06,18,18v45.96
	C419.97,159.96,411.91,168.01,401.97,168.01z"/>
<line class="st0" x1="343.63" y1="86.06" x2="343.63" y2="168.01"/>
<line class="st0" x1="168.3" y1="86.06" x2="168.3" y2="168.01"/>
<line class="st0" x1="238.81" y1="227.36" x2="273.12" y2="227.36"/>
<path class="st0" d="M311.3,227.36h29.61v73.34c0,15.18-12.3,27.48-27.48,27.48H198.5c-15.18,0-27.48-12.3-27.48-27.48v-73.34h29.61
	"/>
<path class="st0" d="M292.21,286.7L292.21,286.7c-10.54,0-19.09-8.55-19.09-19.09v-99.6h38.18v99.6
	C311.3,278.15,302.75,286.7,292.21,286.7z"/>
<path class="st0" d="M200.63,227.36v-59.34h38.18v99.6c0,10.54-8.55,19.09-19.09,19.09h0c-10.54,0-19.09-8.55-19.09-19.09V227.36"/>
<path class="st0" d="M332.77,425.87H179.23c-21.53,0-38.99-17.46-38.99-38.99V168.01h231.52v218.86
	C371.76,408.41,354.3,425.87,332.77,425.87z"/>
<line class="st0" x1="179.24" y1="372.48" x2="332.76" y2="372.48"/>
<path class="st0" d="M393.59,375.33h-21.82V286.7h21.82c11,0,19.91,8.92,19.91,19.91v48.8C413.5,366.42,404.58,375.33,393.59,375.33
	z"/>
<line class="st0" x1="413.5" y1="319.1" x2="394.43" y2="319.1"/>
<path class="st0" d="M118.41,375.33h21.82V286.7h-21.82c-11,0-19.91,8.92-19.91,19.91v48.8C98.5,366.42,107.42,375.33,118.41,375.33
	z"/>
<line class="st0" x1="98.5" y1="319.1" x2="117.57" y2="319.1"/>
</svg>
