<?xml version="1.0" encoding="utf-8"?>
<!-- Generator: Adobe Illustrator 23.1.1, SVG Export Plug-In . SVG Version: 6.00 Build 0)  -->
<svg version="1.1" id="Layer_1" xmlns="http://www.w3.org/2000/svg" xmlns:xlink="http://www.w3.org/1999/xlink" x="0px" y="0px"
	 viewBox="0 0 512 512" style="enable-background:new 0 0 512 512;" xml:space="preserve">
<style type="text/css">
	.st0{fill:none;stroke:#FFFFFF;stroke-width:12;stroke-linecap:round;stroke-linejoin:round;stroke-miterlimit:10;}
</style>
<polygon class="st0" points="256,364.88 171.15,402.75 86.31,364.88 86.31,109.09 171.15,146.96 256,109.09 "/>
<polyline class="st0" points="86.31,236.98 171.15,274.85 256,236.98 "/>
<line class="st0" x1="171.15" y1="146.96" x2="171.15" y2="402.75"/>
<polygon class="st0" points="425.9,364.88 341.05,402.75 256.2,364.88 256.2,109.09 341.05,146.96 425.9,109.09 "/>
<line class="st0" x1="376.32" y1="259.11" x2="425.9" y2="236.98"/>
<line class="st0" x1="256.2" y1="236.98" x2="305.78" y2="259.11"/>
<line class="st0" x1="341.05" y1="313.36" x2="341.05" y2="402.75"/>
<line class="st0" x1="341.05" y1="146.96" x2="341.05" y2="196.35"/>
<circle class="st0" cx="341.05" cy="237.32" r="17.78"/>
<path class="st0" d="M306.44,260.16l34.61,53.2l34.61-53.2c17.87-27.47-1.84-63.81-34.61-63.81h0
	C308.28,196.35,288.57,232.69,306.44,260.16z"/>
</svg>
