<?xml version="1.0" encoding="utf-8"?>
<!-- Generator: Adobe Illustrator 23.1.1, SVG Export Plug-In . SVG Version: 6.00 Build 0)  -->
<svg version="1.1" id="Layer_1" xmlns="http://www.w3.org/2000/svg" xmlns:xlink="http://www.w3.org/1999/xlink" x="0px" y="0px"
	 viewBox="0 0 512 512" style="enable-background:new 0 0 512 512;" xml:space="preserve">
<style type="text/css">
	.st0{fill:none;stroke:#FFFFFF;stroke-width:12;stroke-linecap:round;stroke-linejoin:round;stroke-miterlimit:10;}
</style>
<path class="st0" d="M198.46,173.69L87.04,382.06H347.1L235.67,173.69C227.72,158.83,206.41,158.83,198.46,173.69z"/>
<line class="st0" x1="175.55" y1="273.48" x2="117.49" y2="382.06"/>
<line class="st0" x1="182.19" y1="344.5" x2="162.11" y2="382.06"/>
<g>
	<path class="st0" d="M123.36,136.55c8.77-3.08,18.37,1.52,21.45,10.29"/>
	<path class="st0" d="M144.81,146.84c-3.08-8.77,1.52-18.37,10.29-21.45"/>
</g>
<g>
	<path class="st0" d="M294.33,166.69c8.67,3.34,12.99,13.08,9.64,21.75"/>
	<path class="st0" d="M303.98,188.45c3.34-8.67,13.08-12.99,21.75-9.64"/>
</g>
<path class="st0" d="M184.49,236.35c6.2-1.63,12.76,0.8,16.42,6.06c6.42,9.25,20.3,8.61,25.84-1.19l4.55-8.04
	c3.24-5.74,9.8-8.75,16.27-7.46l17.83,3.54l-29.72-55.57c-7.95-14.86-29.26-14.86-37.21,0l-36.69,68.62L184.49,236.35z"/>
<path class="st0" d="M290.52,276.26l27.66-51.21c7.59-14.19,27.94-14.19,35.53,0l71.26,133.25h-90.57"/>
<line class="st0" x1="364.36" y1="283.96" x2="404.11" y2="358.3"/>
<line class="st0" x1="359.82" y1="332.59" x2="373.57" y2="358.3"/>
<path class="st0" d="M358.24,258.54c-4.27-1.12-8.74,0.6-11.28,4.21c-4.41,6.27-13.87,5.81-17.65-0.88l-3.11-5.5
	c-2.22-3.93-6.71-5.99-11.14-5.11l-12.21,2.42l15.32-28.65c7.59-14.19,27.94-14.19,35.53,0l20.09,37.58L358.24,258.54z"/>
</svg>
