<?xml version="1.0" encoding="utf-8"?>
<!-- Generator: Adobe Illustrator 23.1.1, SVG Export Plug-In . SVG Version: 6.00 Build 0)  -->
<svg version="1.1" id="Layer_1" xmlns="http://www.w3.org/2000/svg" xmlns:xlink="http://www.w3.org/1999/xlink" x="0px" y="0px"
	 viewBox="0 0 512 512" style="enable-background:new 0 0 512 512;" xml:space="preserve">
<style type="text/css">
	.st0{fill:none;stroke:#FFFFFF;stroke-width:12;stroke-linecap:round;stroke-linejoin:round;stroke-miterlimit:10;}
</style>
<circle class="st0" cx="256" cy="256" r="136.28"/>
<circle class="st0" cx="256" cy="256" r="169.29"/>
<line class="st0" x1="352.33" y1="159.62" x2="322" y2="189.95"/>
<line class="st0" x1="189.93" y1="322.01" x2="159.61" y2="352.34"/>
<line class="st0" x1="352.33" y1="352.34" x2="322" y2="322.01"/>
<line class="st0" x1="189.93" y1="189.95" x2="159.61" y2="159.62"/>
<path class="st0" d="M356.76,119.6c9.82-9.82,25.75-9.82,35.58,0s9.82,25.75,0,35.58"/>
<path class="st0" d="M155.24,392.29c-9.82,9.82-25.75,9.82-35.58,0s-9.82-25.75,0-35.58"/>
<polygon class="st0" points="290.38,165.01 232.46,247.1 221.61,346.98 279.53,264.89 "/>
<line class="st0" x1="232.46" y1="247.1" x2="279.53" y2="264.89"/>
</svg>
