<?xml version="1.0" encoding="utf-8"?>
<!-- Generator: Adobe Illustrator 23.1.1, SVG Export Plug-In . SVG Version: 6.00 Build 0)  -->
<svg version="1.1" id="Layer_1" xmlns="http://www.w3.org/2000/svg" xmlns:xlink="http://www.w3.org/1999/xlink" x="0px" y="0px"
	 viewBox="0 0 512 512" style="enable-background:new 0 0 512 512;" xml:space="preserve">
<style type="text/css">
	.st0{fill:#FFFFFF;}
</style>
<g>
	<g>
		<path class="st0" d="M256,490.71L120.9,289.84c-17.27-25.68-26.91-55.17-27.88-85.31c-0.91-28.32,5.75-56.71,19.27-82.09
			c13.52-25.38,33.35-46.75,57.36-61.81c25.55-16.01,55.4-24.48,86.35-24.48c30.94,0,60.8,8.47,86.35,24.48
			c24.01,15.05,43.85,36.42,57.36,61.81c13.52,25.38,20.18,53.77,19.27,82.09c-0.97,30.13-10.61,59.63-27.88,85.31L256,490.71z
			 M256,73.71c-47.09,0-88.42,24.82-110.56,66.38c-22.14,41.57-19.66,89.71,6.62,128.79L256,423.42l103.94-154.54
			c26.28-39.08,28.76-87.22,6.62-128.79C344.42,98.53,303.09,73.71,256,73.71z"/>
	</g>
	<g>
		<path class="st0" d="M256,284.05c-46.77,0-84.83-38.05-84.83-84.83s38.05-84.83,84.83-84.83c46.78,0,84.83,38.05,84.83,84.83
			S302.78,284.05,256,284.05z M256,151.95c-26.07,0-47.27,21.21-47.27,47.27s21.21,47.27,47.27,47.27
			c26.07,0,47.27-21.21,47.27-47.27S282.07,151.95,256,151.95z"/>
	</g>
</g>
</svg>
